[Header]
FileType HTR
DataType HTRS
FileVersion 1
NumSegments 64
NumFrames 4
DataFrameRate 24
EulerRotationOrder ZYX
CalibrationUnits mm
RotationUnits Degrees
GlobalAxisofGravity Y
BoneLengthAxis Y
ScaleFactor 1.0
[SegmentNames&Hierarchy]
Hips	GLOBAL
Spine	Hips
Spine1	Spine
Spine2	Spine1
Neck	Spine2
Head	Neck
LeftEye	Head
RightEye	Head
LeftShoulder	Spine2
LeftArm	LeftShoulder
LeftForeArm	LeftArm
LeftHand	LeftForeArm
LeftHandThumb1	LeftHand
LeftHandThumb2	LeftHandThumb1
LeftHandThumb3	LeftHandThumb2
LeftHandThumb4	LeftHandThumb3
LeftHandIndex1	LeftHand
LeftHandIndex2	LeftHandIndex1
LeftHandIndex3	LeftHandIndex2
LeftHandIndex4	LeftHandIndex3
LeftHandMiddle1	LeftHand
LeftHandMiddle2	LeftHandMiddle1
LeftHandMiddle3	LeftHandMiddle2
LeftHandMiddle4	LeftHandMiddle3
LeftHandRing1	LeftHand
LeftHandRing2	LeftHandRing1
LeftHandRing3	LeftHandRing2
LeftHandRing4	LeftHandRing3
LeftHandPinky1	LeftHand
LeftHandPinky2	LeftHandPinky1
LeftHandPinky3	LeftHandPinky2
LeftHandPinky4	LeftHandPinky3
RightShoulder	Spine2
RightArm	RightShoulder
RightForeArm	RightArm
RightHand	RightForeArm
RightHandPinky1	RightHand
RightHandPinky2	RightHandPinky1
RightHandPinky3	RightHandPinky2
RightHandPinky4	RightHandPinky3
RightHandRing1	RightHand
RightHandRing2	RightHandRing1
RightHandRing3	RightHandRing2
RightHandRing4	RightHandRing3
RightHandMiddle1	RightHand
RightHandMiddle2	RightHandMiddle1
RightHandMiddle3	RightHandMiddle2
RightHandMiddle4	RightHandMiddle3
RightHandIndex1	RightHand
RightHandIndex2	RightHandIndex1
RightHandIndex3	RightHandIndex2
RightHandIndex4	RightHandIndex3
RightHandThumb1	RightHand
RightHandThumb2	RightHandThumb1
RightHandThumb3	RightHandThumb2
RightHandThumb4	RightHandThumb3
LeftUpLeg	Hips
LeftLeg	LeftUpLeg
LeftFoot	LeftLeg
LeftToeBase	LeftFoot
RightUpLeg	Hips
RightLeg	RightUpLeg
RightFoot	RightLeg
RightToeBase	RightFoot
[BasePosition]
Hips	0	0	0	0	0	0	1
Spine	0	0	0	0	0	0	1
Spine1	0	0	0	0	0	0	1
Spine2	0	0	0	0	0	0	1
Neck	0	0	0	0	0	0	1
Head	0	0	0	0	0	0	1
LeftEye	0	0	0	0	0	0	1
RightEye	0	0	0	0	0	0	1
LeftShoulder	0	0	0	0	0	0	1
LeftArm	0	0	0	0	0	0	1
LeftForeArm	0	0	0	0	0	0	1
LeftHand	0	0	0	0	0	0	1
LeftHandThumb1	0	0	0	0	0	0	1
LeftHandThumb2	0	0	0	0	0	0	1
LeftHandThumb3	0	0	0	0	0	0	1
LeftHandThumb4	0	0	0	0	0	0	1
LeftHandIndex1	0	0	0	0	0	0	1
LeftHandIndex2	0	0	0	0	0	0	1
LeftHandIndex3	0	0	0	0	0	0	1
LeftHandIndex4	0	0	0	0	0	0	1
LeftHandMiddle1	0	0	0	0	0	0	1
LeftHandMiddle2	0	0	0	0	0	0	1
LeftHandMiddle3	0	0	0	0	0	0	1
LeftHandMiddle4	0	0	0	0	0	0	1
LeftHandRing1	0	0	0	0	0	0	1
LeftHandRing2	0	0	0	0	0	0	1
LeftHandRing3	0	0	0	0	0	0	1
LeftHandRing4	0	0	0	0	0	0	1
LeftHandPinky1	0	0	0	0	0	0	1
LeftHandPinky2	0	0	0	0	0	0	1
LeftHandPinky3	0	0	0	0	0	0	1
LeftHandPinky4	0	0	0	0	0	0	1
RightShoulder	0	0	0	0	0	0	1
RightArm	0	0	0	0	0	0	1
RightForeArm	0	0	0	0	0	0	1
RightHand	0	0	0	0	0	0	1
RightHandPinky1	0	0	0	0	0	0	1
RightHandPinky2	0	0	0	0	0	0	1
RightHandPinky3	0	0	0	0	0	0	1
RightHandPinky4	0	0	0	0	0	0	1
RightHandRing1	0	0	0	0	0	0	1
RightHandRing2	0	0	0	0	0	0	1
RightHandRing3	0	0	0	0	0	0	1
RightHandRing4	0	0	0	0	0	0	1
RightHandMiddle1	0	0	0	0	0	0	1
RightHandMiddle2	0	0	0	0	0	0	1
RightHandMiddle3	0	0	0	0	0	0	1
RightHandMiddle4	0	0	0	0	0	0	1
RightHandIndex1	0	0	0	0	0	0	1
RightHandIndex2	0	0	0	0	0	0	1
RightHandIndex3	0	0	0	0	0	0	1
RightHandIndex4	0	0	0	0	0	0	1
RightHandThumb1	0	0	0	0	0	0	1
RightHandThumb2	0	0	0	0	0	0	1
RightHandThumb3	0	0	0	0	0	0	1
RightHandThumb4	0	0	0	0	0	0	1
LeftUpLeg	0	0	0	0	0	0	1
LeftLeg	0	0	0	0	0	0	1
LeftFoot	0	0	0	0	0	0	1
LeftToeBase	0	0	0	0	0	0	1
RightUpLeg	0	0	0	0	0	0	1
RightLeg	0	0	0	0	0	0	1
RightFoot	0	0	0	0	0	0	1
RightToeBase	0	0	0	0	0	0	1
[Hips]
430	64.43457031	1054.320068	-153.4188538	-165.5454559	256.8395996	-192.0843201	1.0
431	64.45456696	1038.453857	-149.645874	-163.5835419	252.7853699	-194.4866638	1.0
432	67.89645386	1029.419922	-145.1460114	-162.6583099	253.7349701	-195.8550568	1.0
433	71.96440887	1030.24707	-135.2901611	-163.9002838	257.4737854	-196.6194611	1.0
[Spine]
430	0	101.8159943	1.315000057	5.825171947	-41.23246002	-15.00820637	1.0
431	0	101.8159943	1.315000057	5.645127773	-37.97161484	-12.56063652	1.0
432	0	101.8159943	1.315000057	3.948253632	-31.03593636	-10.62243271	1.0
433	0	101.8159943	1.315000057	4.193491936	-23.13569069	-7.771121979	1.0
[Spine1]
430	0	100.8349991	-10.00800037	3.405155659	-5.941892624	9.454742432	1.0
431	0	100.8349991	-10.00800037	3.799927235	-5.570857048	10.17446327	1.0
432	0	100.8349991	-10.00800037	3.875299931	-4.627213478	10.24232006	1.0
433	0	100.8349991	-10.00800037	3.149131298	-3.51018548	8.907300949	1.0
[Spine2]
430	0	91	-13.73399925	4.23484087	-6.075186729	8.987099648	1.0
431	0	91	-13.73399925	4.599328995	-5.701217651	9.729237556	1.0
432	0	91	-13.73399925	4.527714252	-4.72880888	9.898841858	1.0
433	0	91	-13.73399925	3.577952623	-3.533563852	8.722681046	1.0
[Neck]
430	0	166.7169952	-25.16200066	3.719542742	-3.360460758	-1.34910202	1.0
431	0	166.7169952	-25.16200066	-0.4991071224	-2.67570138	-0.02840586193	1.0
432	0	166.7169952	-25.16200066	-2.87855196	-0.931509316	1.836446643	1.0
433	0	166.7169952	-25.16200066	-3.885760069	1.665880203	2.641360998	1.0
[Head]
430	0	96.17900085	16.84999847	4.176073551	-19.78380394	2.339449167	1.0
431	0	96.17900085	16.84999847	1.514654994	-13.73329449	1.991922975	1.0
432	0	96.17900085	16.84999847	-0.1393054426	-2.473686218	0.4238288999	1.0
433	0	96.17900085	16.84999847	-0.9932256341	11.3734684	-1.129678607	1.0
[LeftEye]
430	30.6760006	64.09500122	92.83599854	0	0	0	1.0
431	30.6760006	64.09500122	92.83599854	0	0	0	1.0
432	30.6760006	64.09500122	92.83599854	0	0	0	1.0
433	30.6760006	64.09500122	92.83599854	0	0	0	1.0
[RightEye]
430	-30.6760006	64.09500122	92.83499908	0	0	0	1.0
431	-30.6760006	64.09500122	92.83499908	0	0	0	1.0
432	-30.6760006	64.09500122	92.83499908	0	0	0	1.0
433	-30.6760006	64.09500122	92.83499908	0	0	0	1.0
[LeftShoulder]
430	45.70400238	109.4599991	-26.28000069	-0.3362201452	-10.8237915	12.34831715	1.0
431	45.70400238	109.4599991	-26.28000069	-0.3046045005	-9.450979233	12.35419464	1.0
432	45.70400238	109.4599991	-26.28000069	-0.170741722	-10.31229496	11.07517719	1.0
433	45.70400238	109.4599991	-26.28000069	0.122353889	-9.314806938	8.56353569	1.0
[LeftArm]
430	105.923996	-5.24600029	-22.32099915	-58.86555862	-28.0866642	-9.473379135	1.0
431	105.923996	-5.24600029	-22.32099915	-60.19284439	-38.69310379	-16.30049133	1.0
432	105.923996	-5.24600029	-22.32099915	-55.13362122	-34.58456421	-21.43712997	1.0
433	105.923996	-5.24600029	-22.32099915	-50.19461441	-22.7280941	-22.13890839	1.0
[LeftForeArm]
430	278.414978	-0.0009999999311	0	6.103515625e-05	-108.4726028	-0.0001831054688	1.0
431	278.414978	-0.0009999999311	0	-5.838724504e-10	-107.2113419	-0.0002441407123	1.0
432	278.414978	-0.0009999999311	0	-1.525890548e-05	-106.0228348	-0.0001983644761	1.0
433	278.414978	-0.0009999999311	0	1.525878906e-05	-102.2316666	-0.0002136230469	1.0
[LeftHand]
430	283.2879944	0	0	25.38478851	-37.47156143	5.114343166	1.0
431	283.2879944	0	0	23.68634987	-37.80792999	7.73164463	1.0
432	283.2879944	0	0	21.01867104	-36.23211288	12.3415451	1.0
433	283.2879944	0	0	19.92829323	-33.84798813	15.27796936	1.0
[LeftHandThumb1]
430	24.6609993	-15.75	26.8239994	-18.83381653	-13.23353195	20.06602669	1.0
431	24.6609993	-15.75	26.8239994	-19.4907341	-13.72698689	20.82274818	1.0
432	24.6609993	-15.75	26.8239994	-19.82674217	-13.68145943	21.72626877	1.0
433	24.6609993	-15.75	26.8239994	-19.70353699	-13.06951904	22.52926826	1.0
[LeftHandThumb2]
430	32.29800034	-18.64699936	18.64699936	22.26914978	30.31320953	14.58387375	1.0
431	32.29800034	-18.64699936	18.64699936	22.70514297	30.59933853	14.90421295	1.0
432	32.29800034	-18.64699936	18.64699936	22.47509384	30.29777527	14.71023846	1.0
433	32.29800034	-18.64699936	18.64699936	21.64401627	29.48291206	14.06918526	1.0
[LeftHandThumb3]
430	26.52600098	-15.31499958	15.31499958	5.65520525	12.90134811	5.028007507	1.0
431	26.52600098	-15.31499958	15.31499958	5.996343613	13.203372	5.176729679	1.0
432	26.52600098	-15.31499958	15.31499958	6.01201725	13.07979584	5.163567543	1.0
433	26.52600098	-15.31499958	15.31499958	5.709642887	12.61619186	5.003712177	1.0
[LeftHandThumb4]
430	19.54599953	-11.28499985	11.28499985	0	0	0	1.0
431	19.54599953	-11.28499985	11.28499985	0	0	0	1.0
432	19.54599953	-11.28499985	11.28499985	0	0	0	1.0
433	19.54599953	-11.28499985	11.28499985	0	0	0	1.0
[LeftHandIndex1]
430	91.09299469	-5.170999527	22.60099792	-0.5913258791	-10.55974579	25.03231049	1.0
431	91.09299469	-5.170999527	22.60099792	-0.5881397724	-10.71388245	25.01508522	1.0
432	91.09299469	-5.170999527	22.60099792	-0.5884433389	-10.69313526	25.01496315	1.0
433	91.09299469	-5.170999527	22.60099792	-0.5894459486	-10.5490818	24.99417305	1.0
[LeftHandIndex2]
430	36.76399994	0	0	3.470655656e-06	5.533853619e-05	-0.0004557520151	1.0
431	36.76399994	0	0	1.007281116e-05	2.807407327e-05	-0.0002685000945	1.0
432	36.76399994	0	0	0	-3.975693398e-16	-1.590277359e-15	1.0
433	36.76399994	0	0	-1.876530405e-06	4.928214139e-07	-4.382439329e-06	1.0
[LeftHandIndex3]
430	28.83100128	0	0	-0.02004708722	0.5251806378	-4.372776031	1.0
431	28.83100128	0	0	-0.02005333081	0.5251125693	-4.372187614	1.0
432	28.83100128	0	0	-0.02003485896	0.5251147747	-4.372188568	1.0
433	28.83100128	0	0	-0.02005331218	0.5250980854	-4.372176647	1.0
[LeftHandIndex4]
430	23.92700005	0	0	0	0	0	1.0
431	23.92700005	0	0	0	0	0	1.0
432	23.92700005	0	0	0	0	0	1.0
433	23.92700005	0	0	0	0	0	1.0
[LeftHandMiddle1]
430	95.33399963	0	0	-0.5508950949	-2.43864584	23.07997513	1.0
431	95.33399963	0	0	-0.5510255098	-2.35176158	23.08454895	1.0
432	95.33399963	0	0	-0.5511474013	-2.234195232	23.08940315	1.0
433	95.33399963	0	0	-0.5503054261	-2.125674486	23.07423019	1.0
[LeftHandMiddle2]
430	36.98199844	0	0	-1.372536281e-05	-6.56767661e-05	-1.91208369e-06	1.0
431	36.98199844	0	0	-1.054319728e-05	-6.371404743e-05	-9.645535783e-07	1.0
432	36.98199844	0	0	1.3263455e-05	-5.386138582e-05	3.320087444e-06	1.0
433	36.98199844	0	0	3.415409992e-06	-6.17962869e-05	-4.71748217e-06	1.0
[LeftHandMiddle3]
430	29.50900078	0	0	-0.01281264145	0.4199840724	-3.495606422	1.0
431	29.50900078	0	0	-0.01284961309	0.4206533432	-3.501262665	1.0
432	29.50900078	0	0	-0.01288925577	0.4210888743	-3.504912138	1.0
433	29.50900078	0	0	-0.01288582105	0.4211718738	-3.505589962	1.0
[LeftHandMiddle4]
430	28.3390007	0	0	0	0	0	1.0
431	28.3390007	0	0	0	0	0	1.0
432	28.3390007	0	0	0	0	0	1.0
433	28.3390007	0	0	0	0	0	1.0
[LeftHandRing1]
430	91.04499817	-0.4390000105	-18.65100098	-0.543199122	3.635309935	23.7349453	1.0
431	91.04499817	-0.4390000105	-18.65100098	-0.5395427942	4.05228281	23.76990318	1.0
432	91.04499817	-0.4390000105	-18.65100098	-0.5361166596	4.383485794	23.7912178	1.0
433	91.04499817	-0.4390000105	-18.65100098	-0.5336865187	4.560189247	23.79190636	1.0
[LeftHandRing2]
430	31.54000092	0	0	1.231273291e-05	-5.716688975e-06	6.769761285e-07	1.0
431	31.54000092	0	0	-7.232795724e-06	-8.673538105e-06	2.477333874e-05	1.0
432	31.54000092	0	0	-4.664539119e-06	-9.870588656e-06	-3.514091986e-06	1.0
433	31.54000092	0	0	-4.023221209e-06	-8.216044989e-06	1.065815013e-06	1.0
[LeftHandRing3]
430	29.37700081	0	0	-0.02215508185	0.5518856049	-4.595613956	1.0
431	29.37700081	0	0	-0.02221314423	0.5525585413	-4.601321697	1.0
432	29.37700081	0	0	-0.02222218178	0.5530057549	-4.60491848	1.0
433	29.37700081	0	0	-0.02223533764	0.5530524254	-4.605322838	1.0
[LeftHandRing4]
430	26.47500038	0	0	0	0	0	1.0
431	26.47500038	0	0	0	0	0	1.0
432	26.47500038	0	0	0	0	0	1.0
433	26.47500038	0	0	0	0	0	1.0
[LeftHandPinky1]
430	80.77799988	-4.887000084	-38.06099701	-0.8884130716	14.97923565	34.54782867	1.0
431	80.77799988	-4.887000084	-38.06099701	-0.8634037971	15.78931999	34.61610794	1.0
432	80.77799988	-4.887000084	-38.06099701	-0.8438489437	16.36893463	34.65372849	1.0
433	80.77799988	-4.887000084	-38.06099701	-0.8349343538	16.61878204	34.66608047	1.0
[LeftHandPinky2]
430	36	0	0	0.01674696803	-4.056676865	-0.4910174608	1.0
431	36	0	0	0.01661157981	-4.056897163	-0.4891507626	1.0
432	36	0	0	0.01661491394	-4.056904316	-0.4891343117	1.0
433	36	0	0	0.01660058275	-4.056904793	-0.489151895	1.0
[LeftHandPinky3]
430	21.14200211	0	0	-0.01582193188	0.4665674567	-3.883980274	1.0
431	21.14200211	0	0	-0.01584087126	0.4667452276	-3.885450363	1.0
432	21.14200211	0	0	-0.0158444047	0.4668411911	-3.886205196	1.0
433	21.14200211	0	0	-0.01582188159	0.4667437971	-3.885398388	1.0
[LeftHandPinky4]
430	19.75699997	0	0	0	0	0	1.0
431	19.75699997	0	0	0	0	0	1.0
432	19.75699997	0	0	0	0	0	1.0
433	19.75699997	0	0	0	0	0	1.0
[RightShoulder]
430	-45.70000076	109.4620056	-26.28000069	0.4994341731	-19.28977776	-13.22218609	1.0
431	-45.70000076	109.4620056	-26.28000069	-0.1448229849	-20.972332	-8.726146698	1.0
432	-45.70000076	109.4620056	-26.28000069	-1.142339587	-19.31502342	-1.530398965	1.0
433	-45.70000076	109.4620056	-26.28000069	-1.280920506	-14.47307682	3.520815372	1.0
[RightArm]
430	-105.9280014	-5.248000145	-22.32099915	-47.37077713	-17.98011589	9.675946236	1.0
431	-105.9280014	-5.248000145	-22.32099915	-59.69968796	-11.49818039	12.11649704	1.0
432	-105.9280014	-5.248000145	-22.32099915	-69.57144165	-0.7147682905	11.71655941	1.0
433	-105.9280014	-5.248000145	-22.32099915	-75.36212921	12.74131012	11.99534416	1.0
[RightForeArm]
430	-278.414978	0	0	-1.525878906e-05	126.8253632	0	1.0
431	-278.414978	0	0	-1.525867174e-05	128.1353607	1.167880792e-10	1.0
432	-278.414978	0	0	-1.1669056e-10	126.2165222	1.525913831e-05	1.0
433	-278.414978	0	0	0	120.3989105	-4.577636719e-05	1.0
[RightHand]
430	-283.2879944	0	0.0009999999311	23.3668766	35.31245041	-13.40427113	1.0
431	-283.2879944	0	0.0009999999311	24.67696762	35.1157074	-12.89110947	1.0
432	-283.2879944	0	0.0009999999311	26.62631798	37.22659683	-11.39992046	1.0
433	-283.2879944	0	0.0009999999311	28.10852814	40.10301208	-9.113184929	1.0
[RightHandPinky1]
430	-80.76699829	-4.885000229	-38.06000137	-0.7634193301	-3.710662127	-27.91238022	1.0
431	-80.76699829	-4.885000229	-38.06000137	-0.746424675	-5.004508495	-27.93928146	1.0
432	-80.76699829	-4.885000229	-38.06000137	-0.7136654258	-7.125242233	-28.02265739	1.0
433	-80.76699829	-4.885000229	-38.06000137	-0.6607142687	-9.809498787	-28.15219307	1.0
[RightHandPinky2]
430	-36	0	0.0009999999311	-0.00200060592	-0.1668713242	1.387823105	1.0
431	-36	0	0.0009999999311	-0.00226462353	-0.1775758862	1.476069331	1.0
432	-36	0	0.0009999999311	-0.002552399877	-0.1880005002	1.56193614	1.0
433	-36	0	0.0009999999311	-0.002769611543	-0.1962348074	1.629948139	1.0
[RightHandPinky3]
430	-21.14200211	0	0	-0.01484441012	0.4542340636	-3.744466543	1.0
431	-21.14200211	0	0	-0.02321308292	0.5678842664	-4.683400154	1.0
432	-21.14200211	0	0	-0.03383326903	0.6851831079	-5.653639793	1.0
433	-21.14200211	0	0	-0.04553306848	0.7945361137	-6.559817314	1.0
[RightHandPinky4]
430	-19.75699997	0	0	0	0	0	1.0
431	-19.75699997	0	0	0	0	0	1.0
432	-19.75699997	0	0	0	0	0	1.0
433	-19.75699997	0	0	0	0	0	1.0
[RightHandRing1]
430	-91.03599548	-0.4390000105	-18.65100098	-0.5712851286	3.107628584	-23.39206696	1.0
431	-91.03599548	-0.4390000105	-18.65100098	-0.5934738517	1.779201388	-23.86481476	1.0
432	-91.03599548	-0.4390000105	-18.65100098	-0.6225306392	-0.1877664626	-24.60456276	1.0
433	-91.03599548	-0.4390000105	-18.65100098	-0.6556793451	-0.7398597598	-25.2825737	1.0
[RightHandRing2]
430	-31.54000092	0	0	-1.597632036e-06	-1.915868097e-06	2.740183481e-05	1.0
431	-31.54000092	0	0	1.443294536e-06	5.576358944e-06	3.363951328e-05	1.0
432	-31.54000092	0	0	-3.203764209e-06	-4.695931821e-08	1.269199129e-05	1.0
433	-31.54000092	0	0	-7.681292118e-07	-4.983965596e-07	9.53627241e-05	1.0
[RightHandRing3]
430	-29.37700081	0	0	-0.01338175032	0.5527437329	-4.558139324	1.0
431	-29.37700081	0	0	-0.1460074037	0.6233091354	-5.141341686	1.0
432	-29.37700081	0	0	-0.3640192747	0.6998426914	-5.774442673	1.0
433	-29.37700081	0	0	-1.172833681	0.8285495639	-6.799432278	1.0
[RightHandRing4]
430	-26.47500038	0	0	0	0	0	1.0
431	-26.47500038	0	0	0	0	0	1.0
432	-26.47500038	0	0	0	0	0	1.0
433	-26.47500038	0	0	0	0	0	1.0
[RightHandMiddle1]
430	-95.32500458	0	0	-0.5247824192	10.645751	-23.65579987	1.0
431	-95.32500458	0	0	-0.6056463718	8.979729652	-24.78180885	1.0
432	-95.32500458	0	0	-0.7193861008	6.720351219	-26.50009727	1.0
433	-95.32500458	0	0	-0.8334713578	5.833623886	-28.32239532	1.0
[RightHandMiddle2]
430	-36.98199844	0	0	-3.240545993e-06	-2.659193967e-07	1.05402014e-05	1.0
431	-36.98199844	0	0	5.450511708e-06	-5.576344392e-06	5.278601748e-06	1.0
432	-36.98199844	0	0	-2.810154456e-06	7.677065696e-06	1.329431234e-05	1.0
433	-36.98199844	0	0	-1.492924412e-06	2.490379075e-06	7.898928015e-05	1.0
[RightHandMiddle3]
430	-29.50900078	0	0	0.7497745156	0.5387141109	-4.458926201	1.0
431	-29.50900078	0	0	0.6190108061	0.5841752887	-4.834581375	1.0
432	-29.50900078	0	0	0.4121859074	0.639941752	-5.295689106	1.0
433	-29.50900078	0	0	-0.2957407534	0.7527504563	-6.193986893	1.0
[RightHandMiddle4]
430	-28.3390007	0	0.0009999999311	0	0	0	1.0
431	-28.3390007	0	0.0009999999311	0	0	0	1.0
432	-28.3390007	0	0.0009999999311	0	0	0	1.0
433	-28.3390007	0	0.0009999999311	0	0	0	1.0
[RightHandIndex1]
430	-91.08300018	-5.167999744	22.60099792	-0.2076839805	19.65798378	-21.86811066	1.0
431	-91.08300018	-5.167999744	22.60099792	-0.3922881782	17.27468109	-23.89414024	1.0
432	-91.08300018	-5.167999744	22.60099792	-0.6428893209	14.20230579	-26.95290375	1.0
433	-91.08300018	-5.167999744	22.60099792	-0.9125279188	10.9778204	-30.49035645	1.0
[RightHandIndex2]
430	-36.76399994	0	0	0	-0	0	1.0
431	-36.76399994	0	0	-8.404209098e-07	1.68084182e-06	-2.293451615e-07	1.0
432	-36.76399994	0	0	9.939233893e-16	7.951386796e-16	0	1.0
433	-36.76399994	0	0	-3.775989398e-06	1.349800073e-06	-8.917912169e-07	1.0
[RightHandIndex3]
430	-28.83100128	0	0	-0.01763006672	0.4948758781	-4.080113411	1.0
431	-28.83100128	0	0	-0.01900163665	0.513713479	-4.235738277	1.0
432	-28.83100128	0	0	-0.02150745876	0.5466031432	-4.507473946	1.0
433	-28.83100128	0	0	-0.02499159239	0.5890886784	-4.85865736	1.0
[RightHandIndex4]
430	-23.92700005	0	0	0	0	0	1.0
431	-23.92700005	0	0	0	0	0	1.0
432	-23.92700005	0	0	0	0	0	1.0
433	-23.92700005	0	0	0	0	0	1.0
[RightHandThumb1]
430	-24.64799881	-15.72700024	26.82600021	-15.24260712	-8.501916885	-17.52995682	1.0
431	-24.64799881	-15.72700024	26.82600021	-15.11093998	-8.738524437	-21.28467369	1.0
432	-24.64799881	-15.72700024	26.82600021	-14.94987869	-9.09025383	-25.48755836	1.0
433	-24.64799881	-15.72700024	26.82600021	-14.74168682	-9.513526917	-29.29474258	1.0
[RightHandThumb2]
430	-32.29800034	-18.64699936	18.64699936	10.72104263	-26.10203362	-5.282505035	1.0
431	-32.29800034	-18.64699936	18.64699936	9.066727638	-22.1050415	-3.785199642	1.0
432	-32.29800034	-18.64699936	18.64699936	7.112030983	-16.61154938	-2.019222498	1.0
433	-32.29800034	-18.64699936	18.64699936	5.255129337	-10.50772572	-0.3960105181	1.0
[RightHandThumb3]
430	-26.52600098	-15.31399918	15.31399918	6.927942276	-15.2331028	-5.551578999	1.0
431	-26.52600098	-15.31399918	15.31399918	4.790694714	-11.70919323	-4.527659893	1.0
432	-26.52600098	-15.31399918	15.31399918	2.262836218	-7.322312832	-3.654943705	1.0
433	-26.52600098	-15.31399918	15.31399918	-0.2491113842	-2.771405935	-3.164106369	1.0
[RightHandThumb4]
430	-19.54599953	-11.28499985	11.28499985	0	0	0	1.0
431	-19.54599953	-11.28499985	11.28499985	0	0	0	1.0
432	-19.54599953	-11.28499985	11.28499985	0	0	0	1.0
433	-19.54599953	-11.28499985	11.28499985	0	0	0	1.0
[LeftUpLeg]
430	82.07800293	-67.51699829	-15.99599934	-2.197756052	3.28255868	1.242139578	1.0
431	82.07800293	-67.51699829	-15.99599934	-3.552291393	-0.7634893656	3.029876947	1.0
432	82.07800293	-67.51699829	-15.99599934	-6.668375492	-2.308581829	3.819422483	1.0
433	82.07800293	-67.51699829	-15.99599934	-6.878743172	-4.68097496	3.483980894	1.0
[LeftLeg]
430	0	-443.7049866	2.845999956	5.71118927	10.01313496	1.894603491	1.0
431	0	-443.7049866	2.845999956	9.932394981	9.829071999	1.498373747	1.0
432	0	-443.7049866	2.845999956	17.02588272	9.980879784	0.3752987981	1.0
433	0	-443.7049866	2.845999956	21.49837685	11.46060371	-1.46570003	1.0
[LeftFoot]
430	0	-444.2789917	-29.8219986	2.039363384	4.473144531	-1.138051629	1.0
431	0	-444.2789917	-29.8219986	-8.851205826	4.597210884	-0.01169716846	1.0
432	0	-444.2789917	-29.8219986	-12.62062836	6.667169571	-0.3882630467	1.0
433	0	-444.2789917	-29.8219986	-9.990633965	10.66483974	0.1101611182	1.0
[LeftToeBase]
430	0	-87.28699493	107.1060028	-9.408382416	1.87002388e-05	-1.462594469e-06	1.0
431	0	-87.28699493	107.1060028	-1.993366718	1.770969902e-05	1.356367875e-06	1.0
432	0	-87.28699493	107.1060028	-0.8550421596	4.013844773e-06	-3.989468951e-07	1.0
433	0	-87.28699493	107.1060028	-7.494368553	-2.870368553e-05	1.521890567e-06	1.0
[RightUpLeg]
430	-82.07800293	-67.51699829	-15.99599934	-3.697658777	-1.273578525	0.6760821342	1.0
431	-82.07800293	-67.51699829	-15.99599934	-2.695014	-5.630777359	2.697936058	1.0
432	-82.07800293	-67.51699829	-15.99599934	-2.762531281	-6.818305492	3.723451376	1.0
433	-82.07800293	-67.51699829	-15.99599934	-2.139460802	-7.466647148	1.519484878	1.0
[RightLeg]
430	0	-443.7049866	2.861999989	9.283120155	-9.838154793	-1.693238497	1.0
431	0	-443.7049866	2.861999989	10.06978321	-10.45795155	-2.169688225	1.0
432	0	-443.7049866	2.861999989	10.52605915	-10.14780331	-4.0355196	1.0
433	0	-443.7049866	2.861999989	12.55398178	-10.03851986	-4.199189663	1.0
[RightFoot]
430	0	-444.2770081	-29.83799934	-2.702225208	-30.32027054	17.68146896	1.0
431	0	-444.2770081	-29.83799934	-10.0681572	-26.84327698	17.5103035	1.0
432	0	-444.2770081	-29.83799934	-12.84045601	-25.10796165	15.99297333	1.0
433	0	-444.2770081	-29.83799934	-11.22821617	-21.95780945	15.12244892	1.0
[RightToeBase]
430	0	-87.28699493	107.1060028	-11.41368675	-1.562442412e-05	-5.639953997e-07	1.0
431	0	-87.28699493	107.1060028	-5.375391483	1.06073494e-05	-2.733845122e-06	1.0
432	0	-87.28699493	107.1060028	-1.180673957	-4.798444934e-06	-7.141212564e-07	1.0
433	0	-87.28699493	107.1060028	-2.011645794	7.378893315e-06	-2.661667395e-06	1.0
[EndOfFile]
